<svg xmlns="http://www.w3.org/2000/svg" xmlns:xlink="http://www.w3.org/1999/xlink" width="1024" zoomAndPan="magnify" viewBox="0 0 768 767.999994" height="1024" preserveAspectRatio="xMidYMid meet" version="1.0"><defs><g/></defs><path fill="#000000" d="M 384 768 C 171.851562 768 0 594.964844 0 384 C 0 173.035156 171.851562 0 384 0 C 596.148438 0 768 171.851562 768 384 C 768 596.148438 594.964844 768 384 768 Z M 384 23.703125 C 184.890625 23.703125 23.703125 184.890625 23.703125 384 C 23.703125 583.109375 184.890625 744.296875 384 744.296875 C 583.109375 744.296875 744.296875 583.109375 744.296875 384 C 744.296875 184.890625 581.925781 23.703125 384 23.703125 Z M 384 23.703125 " fill-opacity="1" fill-rule="nonzero"/><g fill="#000000" fill-opacity="1"><g transform="translate(125.177483, 523.580833)"><g><path d="M 89.328125 0.5625 C 85.234375 0.5625 81.601562 0.191406 78.4375 -0.546875 C 75.28125 -1.296875 72.210938 -2.046875 69.234375 -2.796875 L 61.96875 -5.03125 C 61.226562 -5.03125 60.578125 -5.117188 60.015625 -5.296875 C 59.460938 -5.484375 59 -5.578125 58.625 -5.578125 C 54.53125 -6.328125 50.53125 -7.070312 46.625 -7.8125 C 42.71875 -8.5625 38.898438 -9.863281 35.171875 -11.71875 C 29.960938 -14.332031 25.679688 -17.125 22.328125 -20.09375 C 18.984375 -23.070312 15.820312 -26.050781 12.84375 -29.03125 L 8.9375 -33.5 C 6.695312 -36.476562 4.367188 -39.640625 1.953125 -42.984375 C -0.460938 -46.335938 -2.046875 -50.25 -2.796875 -54.71875 C -3.535156 -59.1875 -3.625 -63.835938 -3.0625 -68.671875 C -2.507812 -73.515625 -1.859375 -78.351562 -1.109375 -83.1875 C -0.367188 -87.28125 0.648438 -91.5625 1.953125 -96.03125 C 3.253906 -100.5 4.835938 -105.148438 6.703125 -109.984375 C 11.171875 -118.179688 15.820312 -125.441406 20.65625 -131.765625 C 22.519531 -134.742188 24.941406 -137.441406 27.921875 -139.859375 C 30.898438 -142.273438 33.875 -144.414062 36.84375 -146.28125 L 40.203125 -149.078125 C 42.804688 -150.929688 45.78125 -152.601562 49.125 -154.09375 C 52.476562 -155.582031 55.644531 -157.070312 58.625 -158.5625 L 63.09375 -159.6875 C 67.1875 -161.539062 71.09375 -163.304688 74.8125 -164.984375 C 78.539062 -166.660156 82.453125 -167.867188 86.546875 -168.609375 C 90.640625 -169.359375 95.007812 -169.640625 99.65625 -169.453125 C 104.3125 -169.265625 108.6875 -168.800781 112.78125 -168.0625 C 114.269531 -168.0625 115.664062 -167.875 116.96875 -167.5 C 118.269531 -167.125 119.664062 -166.9375 121.15625 -166.9375 C 123.757812 -166.5625 126.457031 -166.1875 129.25 -165.8125 C 132.039062 -165.445312 134.554688 -164.519531 136.796875 -163.03125 L 136.234375 -163.03125 C 139.953125 -161.164062 142.925781 -158.742188 145.15625 -155.765625 C 147.394531 -152.796875 149.445312 -149.632812 151.3125 -146.28125 L 152.984375 -144.046875 C 155.210938 -141.066406 156.882812 -137.53125 158 -133.4375 C 159.125 -129.34375 160.054688 -125.625 160.796875 -122.28125 C 160.796875 -121.53125 160.890625 -120.875 161.078125 -120.3125 C 161.265625 -119.757812 161.359375 -119.109375 161.359375 -118.359375 C 161.734375 -115.390625 162.195312 -112.414062 162.75 -109.4375 C 163.3125 -106.457031 163.21875 -103.476562 162.46875 -100.5 L 164.703125 -103.296875 L 164.703125 -102.734375 C 168.054688 -109.429688 170.289062 -117.0625 171.40625 -125.625 C 172.519531 -131.945312 171.773438 -138.273438 169.171875 -144.609375 C 168.429688 -147.210938 167.035156 -149.628906 164.984375 -151.859375 C 162.941406 -154.097656 160.800781 -156.519531 158.5625 -159.125 L 156.890625 -160.796875 C 153.171875 -164.515625 150.9375 -167.304688 150.1875 -169.171875 C 149.070312 -170.660156 147.675781 -172.242188 146 -173.921875 C 144.320312 -175.597656 143.484375 -176.617188 143.484375 -176.984375 C 141.253906 -177.734375 139.023438 -179.222656 136.796875 -181.453125 L 137.34375 -181.453125 C 133.625 -183.316406 130.273438 -185.738281 127.296875 -188.71875 C 123.203125 -192.8125 119.851562 -196.71875 117.25 -200.4375 C 114.644531 -204.15625 112.410156 -207.691406 110.546875 -211.046875 C 108.316406 -215.515625 106.921875 -219.796875 106.359375 -223.890625 C 105.804688 -227.984375 105.34375 -232.265625 104.96875 -236.734375 L 104.96875 -239.515625 C 104.21875 -243.617188 103.9375 -248.085938 104.125 -252.921875 C 104.3125 -257.765625 105.335938 -262.601562 107.203125 -267.4375 L 107.203125 -266.875 C 109.429688 -275.4375 113.523438 -284 119.484375 -292.5625 C 121.347656 -294.789062 123.488281 -296.929688 125.90625 -298.984375 C 128.320312 -301.035156 131.019531 -303.175781 134 -305.40625 C 135.488281 -306.144531 137.164062 -307.445312 139.03125 -309.3125 L 144.609375 -313.78125 C 147.210938 -316.007812 149.628906 -318.054688 151.859375 -319.921875 C 154.097656 -321.785156 156.519531 -323.644531 159.125 -325.5 C 163.59375 -327.363281 167.78125 -328.851562 171.6875 -329.96875 C 175.59375 -331.082031 179.59375 -332.015625 183.6875 -332.765625 C 187.78125 -333.503906 192.0625 -333.6875 196.53125 -333.3125 C 201 -332.945312 205.28125 -332.390625 209.375 -331.640625 C 220.539062 -330.523438 230.03125 -327.550781 237.84375 -322.71875 C 241.9375 -319.738281 245.9375 -316.476562 249.84375 -312.9375 C 253.757812 -309.40625 256.644531 -305.035156 258.5 -299.828125 C 260.363281 -295.734375 261.296875 -291.359375 261.296875 -286.703125 C 261.296875 -282.046875 260.925781 -277.671875 260.1875 -273.578125 C 260.1875 -272.835938 260.09375 -272.09375 259.90625 -271.34375 C 259.71875 -270.601562 259.625 -270.046875 259.625 -269.671875 C 259.25 -264.835938 258.316406 -260 256.828125 -255.15625 C 255.335938 -250.3125 253.101562 -245.84375 250.125 -241.75 C 247.15625 -237.65625 243.617188 -234.675781 239.515625 -232.8125 C 235.421875 -230.957031 230.582031 -230.773438 225 -232.265625 L 225.5625 -232.265625 C 219.976562 -233.753906 215.507812 -236.265625 212.15625 -239.796875 C 208.8125 -243.335938 207.507812 -248.644531 208.25 -255.71875 L 208.25 -261.296875 C 207.507812 -266.140625 207.695312 -270.609375 208.8125 -274.703125 L 208.25 -274.703125 C 210.113281 -282.515625 207.320312 -286.609375 199.875 -286.984375 C 198.019531 -286.984375 196.160156 -286.515625 194.296875 -285.578125 C 192.429688 -284.648438 190.570312 -283.628906 188.71875 -282.515625 L 189.265625 -283.078125 L 183.125 -279.71875 C 176.425781 -276.375 170.472656 -272.65625 165.265625 -268.5625 C 162.660156 -266.320312 160.332031 -263.898438 158.28125 -261.296875 C 156.238281 -258.691406 154.84375 -256.085938 154.09375 -253.484375 L 154.65625 -253.484375 C 153.914062 -250.503906 153.171875 -247.894531 152.421875 -245.65625 C 151.679688 -243.425781 151.3125 -241.566406 151.3125 -240.078125 C 151.3125 -235.984375 152.613281 -232.445312 155.21875 -229.46875 C 156.332031 -228.351562 157.632812 -227.238281 159.125 -226.125 C 160.238281 -225.375 161.351562 -224.535156 162.46875 -223.609375 C 163.59375 -222.679688 164.523438 -221.84375 165.265625 -221.09375 C 167.128906 -219.238281 169.175781 -217.472656 171.40625 -215.796875 C 173.632812 -214.117188 175.492188 -212.347656 176.984375 -210.484375 L 180.34375 -207.703125 C 183.320312 -204.722656 186.113281 -201.835938 188.71875 -199.046875 C 191.320312 -196.253906 193.738281 -193.367188 195.96875 -190.390625 C 198.207031 -187.410156 200.441406 -183.96875 202.671875 -180.0625 C 204.898438 -176.15625 206.757812 -172.710938 208.25 -169.734375 L 209.9375 -166.375 L 209.9375 -166.9375 C 211.789062 -163.957031 213.554688 -161.070312 215.234375 -158.28125 C 216.910156 -155.488281 218.304688 -152.046875 219.421875 -147.953125 C 220.171875 -144.234375 220.726562 -140.234375 221.09375 -135.953125 C 221.46875 -131.671875 221.46875 -127.484375 221.09375 -123.390625 C 220.726562 -120.035156 219.984375 -116.5 218.859375 -112.78125 C 217.742188 -109.0625 216.441406 -105.523438 214.953125 -102.171875 L 213.84375 -99.375 L 214.390625 -99.9375 C 212.160156 -92.863281 209 -85.421875 204.90625 -77.609375 L 204.90625 -78.171875 C 203.039062 -75.191406 200.992188 -72.488281 198.765625 -70.0625 C 196.535156 -67.644531 194.488281 -65.132812 192.625 -62.53125 L 186.484375 -55.28125 C 185.734375 -54.53125 184.707031 -53.222656 183.40625 -51.359375 C 182.101562 -49.503906 180.894531 -47.644531 179.78125 -45.78125 C 177.914062 -43.550781 176.332031 -41.316406 175.03125 -39.078125 C 173.726562 -36.847656 171.773438 -34.617188 169.171875 -32.390625 C 166.941406 -30.523438 164.242188 -28.847656 161.078125 -27.359375 C 157.910156 -25.867188 155.023438 -24.566406 152.421875 -23.453125 L 143.484375 -18.984375 C 140.140625 -16.753906 136.140625 -14.800781 131.484375 -13.125 C 126.828125 -11.445312 122.269531 -9.863281 117.8125 -8.375 L 118.359375 -8.375 L 108.3125 -5.03125 C 105.332031 -3.90625 102.164062 -2.691406 98.8125 -1.390625 C 95.46875 -0.0859375 92.304688 0.5625 89.328125 0.5625 Z M 132.875 -65.875 C 136.601562 -69.601562 139.394531 -73.140625 141.25 -76.484375 C 139.019531 -75.742188 136.414062 -75.742188 133.4375 -76.484375 C 126 -77.234375 120.414062 -80.023438 116.6875 -84.859375 C 112.96875 -89.703125 111.109375 -95.660156 111.109375 -102.734375 C 111.109375 -107.203125 110.921875 -111.015625 110.546875 -114.171875 C 110.171875 -117.335938 109.054688 -119.664062 107.203125 -121.15625 C 104.960938 -122.644531 102.070312 -123.484375 98.53125 -123.671875 C 95 -123.859375 91.1875 -123.019531 87.09375 -121.15625 L 76.484375 -112.78125 L 76.484375 -113.34375 L 70.34375 -108.3125 C 67.363281 -106.082031 64.757812 -103.847656 62.53125 -101.609375 C 60.300781 -99.378906 58.441406 -96.773438 56.953125 -93.796875 C 56.578125 -93.421875 56.390625 -93.050781 56.390625 -92.6875 C 54.523438 -90.082031 52.753906 -87.382812 51.078125 -84.59375 C 49.410156 -81.800781 48.203125 -78.726562 47.453125 -75.375 C 46.335938 -71.65625 46.054688 -68.398438 46.609375 -65.609375 C 47.171875 -62.816406 48.195312 -60.488281 49.6875 -58.625 C 51.925781 -54.90625 57.320312 -52.300781 65.875 -50.8125 C 72.945312 -48.945312 80.019531 -48.570312 87.09375 -49.6875 C 91.1875 -50.4375 95.375 -51.085938 99.65625 -51.640625 C 103.9375 -52.203125 107.566406 -53.414062 110.546875 -55.28125 C 114.640625 -56.757812 118.546875 -58.242188 122.265625 -59.734375 C 125.992188 -61.222656 129.53125 -63.269531 132.875 -65.875 Z M 132.875 -65.875 "/></g></g></g><g fill="#000000" fill-opacity="1"><g transform="translate(348.506751, 523.580833)"><g><path d="M 107.75 -121.71875 C 105.519531 -120.226562 103.101562 -119.484375 100.5 -119.484375 C 98.269531 -119.484375 96.035156 -119.484375 93.796875 -119.484375 C 91.566406 -119.484375 89.707031 -119.671875 88.21875 -120.046875 C 84.125 -121.160156 80.03125 -123.207031 75.9375 -126.1875 C 71.84375 -129.164062 68.117188 -132.703125 64.765625 -136.796875 C 61.785156 -140.515625 59.738281 -144.421875 58.625 -148.515625 C 57.507812 -152.609375 56.578125 -156.890625 55.828125 -161.359375 C 55.828125 -161.734375 55.734375 -162.289062 55.546875 -163.03125 C 55.367188 -163.78125 55.28125 -164.335938 55.28125 -164.703125 L 54.15625 -169.734375 C 53.414062 -171.960938 52.765625 -174.566406 52.203125 -177.546875 C 51.640625 -180.523438 51.546875 -183.503906 51.921875 -186.484375 C 51.921875 -190.578125 52.382812 -194.390625 53.3125 -197.921875 C 54.25 -201.460938 55.273438 -205.09375 56.390625 -208.8125 L 57.5 -216.078125 L 57.5 -215.515625 C 57.875 -217.742188 58.25 -220.160156 58.625 -222.765625 C 59 -225.378906 59.742188 -227.800781 60.859375 -230.03125 C 63.085938 -234.875 65.039062 -238.875 66.71875 -242.03125 C 68.394531 -245.195312 70.164062 -248.269531 72.03125 -251.25 C 74.257812 -254.59375 76.394531 -257.289062 78.4375 -259.34375 C 80.488281 -261.394531 82.445312 -263.347656 84.3125 -265.203125 L 89.890625 -270.796875 C 90.628906 -272.273438 91.554688 -273.664062 92.671875 -274.96875 C 93.796875 -276.28125 94.359375 -276.75 94.359375 -276.375 C 96.222656 -279.71875 98.175781 -282.878906 100.21875 -285.859375 C 102.269531 -288.835938 104.039062 -290.882812 105.53125 -292 L 104.96875 -292 C 107.195312 -293.863281 111.660156 -296.285156 118.359375 -299.265625 C 120.972656 -300.378906 123.765625 -302.050781 126.734375 -304.28125 C 128.597656 -305.03125 130.179688 -305.960938 131.484375 -307.078125 C 132.785156 -308.191406 134.179688 -309.125 135.671875 -309.875 C 138.273438 -311.726562 140.597656 -313.492188 142.640625 -315.171875 C 144.691406 -316.847656 145.535156 -317.5 145.171875 -317.125 C 150.753906 -319.726562 154.566406 -321.125 156.609375 -321.3125 C 158.660156 -321.5 160.988281 -321.96875 163.59375 -322.71875 C 165.445312 -323.082031 167.304688 -323.359375 169.171875 -323.546875 C 171.035156 -323.734375 172.148438 -324.015625 172.515625 -324.390625 L 179.21875 -326.625 C 182.195312 -327.738281 184.988281 -328.664062 187.59375 -329.40625 C 190.195312 -330.15625 192.988281 -330.898438 195.96875 -331.640625 C 200.0625 -332.390625 204.523438 -332.765625 209.359375 -332.765625 C 214.203125 -332.765625 218.488281 -332.578125 222.21875 -332.203125 C 223.332031 -332.203125 224.539062 -332.296875 225.84375 -332.484375 C 227.144531 -332.671875 228.539062 -332.765625 230.03125 -332.765625 C 235.613281 -333.503906 241.382812 -333.503906 247.34375 -332.765625 C 251.4375 -331.648438 255.53125 -330.347656 259.625 -328.859375 C 263.71875 -327.367188 267.8125 -325.691406 271.90625 -323.828125 C 276 -321.597656 280 -319.175781 283.90625 -316.5625 C 287.8125 -313.957031 291.253906 -311.171875 294.234375 -308.203125 C 297.585938 -304.847656 300.660156 -301.304688 303.453125 -297.578125 C 306.242188 -293.859375 308.570312 -289.953125 310.4375 -285.859375 C 312.289062 -281.765625 313.492188 -277.296875 314.046875 -272.453125 C 314.609375 -267.617188 315.078125 -263.15625 315.453125 -259.0625 C 315.828125 -254.96875 316.109375 -250.40625 316.296875 -245.375 C 316.484375 -240.351562 316.203125 -235.609375 315.453125 -231.140625 C 314.710938 -228.171875 313.691406 -225.660156 312.390625 -223.609375 C 311.085938 -221.566406 309.875 -219.613281 308.75 -217.75 C 308.007812 -215.882812 307.265625 -214.300781 306.515625 -213 C 305.773438 -211.695312 305.21875 -210.488281 304.84375 -209.375 C 302.988281 -204.53125 300.753906 -199.96875 298.140625 -195.6875 C 295.535156 -191.40625 293.117188 -187.21875 290.890625 -183.125 C 286.421875 -176.425781 282.328125 -171.585938 278.609375 -168.609375 C 274.515625 -163.023438 268.929688 -157.816406 261.859375 -152.984375 C 258.878906 -150.378906 255.617188 -147.769531 252.078125 -145.15625 C 248.546875 -142.550781 245.289062 -140.320312 242.3125 -138.46875 C 238.21875 -136.226562 235.332031 -133.992188 233.65625 -131.765625 C 231.976562 -129.535156 231.140625 -126 231.140625 -121.15625 C 231.515625 -115.570312 231.609375 -110.175781 231.421875 -104.96875 C 231.234375 -99.757812 230.769531 -94.734375 230.03125 -89.890625 C 229.289062 -85.796875 228.734375 -81.882812 228.359375 -78.15625 C 227.984375 -74.4375 227.425781 -70.53125 226.6875 -66.4375 C 226.6875 -65.695312 226.59375 -65.234375 226.40625 -65.046875 C 226.21875 -64.859375 226.125 -64.394531 226.125 -63.65625 C 225.75 -59.550781 226.863281 -56.472656 229.46875 -54.421875 C 232.070312 -52.378906 235.421875 -51.921875 239.515625 -53.046875 L 239.515625 -52.484375 C 247.710938 -55.828125 254.039062 -59.921875 258.5 -64.765625 L 265.203125 -71.46875 C 267.441406 -73.320312 269.582031 -75.273438 271.625 -77.328125 C 273.675781 -79.378906 275.070312 -81.332031 275.8125 -83.1875 L 278.046875 -85.984375 C 280.648438 -89.703125 283.535156 -93.144531 286.703125 -96.3125 C 289.867188 -99.476562 293.5 -101.804688 297.59375 -103.296875 C 306.15625 -105.148438 313.597656 -103.285156 319.921875 -97.703125 C 326.242188 -92.117188 328.476562 -84.675781 326.625 -75.375 C 325.875 -72.769531 324.660156 -70.164062 322.984375 -67.5625 C 321.316406 -64.957031 319.550781 -62.347656 317.6875 -59.734375 L 312.109375 -52.484375 L 309.3125 -46.90625 C 308.195312 -44.289062 306.800781 -41.398438 305.125 -38.234375 C 303.445312 -35.078125 301.492188 -32.382812 299.265625 -30.15625 C 292.929688 -24.195312 286.046875 -18.796875 278.609375 -13.953125 C 276.003906 -12.460938 273.210938 -11.253906 270.234375 -10.328125 C 267.253906 -9.398438 264.460938 -8.5625 261.859375 -7.8125 C 260.367188 -7.070312 258.785156 -6.421875 257.109375 -5.859375 C 255.429688 -5.304688 254.410156 -5.03125 254.046875 -5.03125 L 247.34375 -3.34375 C 244.363281 -2.601562 241.382812 -1.675781 238.40625 -0.5625 C 235.425781 0.550781 231.890625 0.738281 227.796875 0 C 222.585938 -0.375 218.117188 -1.394531 214.390625 -3.0625 C 210.671875 -4.738281 207.320312 -6.507812 204.34375 -8.375 L 204.90625 -8.375 L 197.09375 -12.84375 C 193.738281 -15.070312 190.476562 -17.675781 187.3125 -20.65625 C 184.15625 -23.632812 181.644531 -27.171875 179.78125 -31.265625 C 175.6875 -40.203125 174.007812 -49.878906 174.75 -60.296875 C 175.125 -62.898438 175.679688 -65.503906 176.421875 -68.109375 C 177.171875 -70.722656 177.921875 -73.144531 178.671875 -75.375 C 178.671875 -75.75 178.851562 -76.679688 179.21875 -78.171875 C 179.59375 -79.660156 179.96875 -81.144531 180.34375 -82.625 L 182.578125 -95.46875 L 184.8125 -103.84375 L 184.8125 -106.640625 C 185.175781 -109.617188 185.171875 -112.597656 184.796875 -115.578125 C 184.429688 -118.554688 181.828125 -120.414062 176.984375 -121.15625 C 172.890625 -121.90625 169.351562 -121.71875 166.375 -120.59375 C 163.40625 -119.476562 161.175781 -116.128906 159.6875 -110.546875 L 153.546875 -95.46875 L 148.515625 -85.421875 L 148.515625 -85.984375 C 147.023438 -81.515625 145.8125 -78.441406 144.875 -76.765625 C 143.945312 -75.085938 143.113281 -73.320312 142.375 -71.46875 L 137.90625 -60.859375 C 135.675781 -56.765625 133.441406 -52.757812 131.203125 -48.84375 C 128.972656 -44.9375 126.554688 -41.3125 123.953125 -37.96875 C 123.203125 -37.21875 122.363281 -36.097656 121.4375 -34.609375 C 120.507812 -33.128906 119.859375 -32.015625 119.484375 -31.265625 C 117.617188 -28.660156 115.566406 -26.054688 113.328125 -23.453125 C 111.097656 -20.847656 108.867188 -18.613281 106.640625 -16.75 C 99.566406 -11.90625 91.191406 -7.625 81.515625 -3.90625 L 82.078125 -3.90625 C 79.097656 -2.414062 75.75 -1.671875 72.03125 -1.671875 L 65.328125 -1.671875 C 57.503906 -1.671875 50.148438 -1.945312 43.265625 -2.5 C 36.378906 -3.0625 29.960938 -4.832031 24.015625 -7.8125 L 24.5625 -7.8125 C 15.632812 -11.90625 8.75 -18.976562 3.90625 -29.03125 C -0.925781 -39.820312 -2.972656 -50.988281 -2.234375 -62.53125 C -1.859375 -67.375 -1.484375 -72.023438 -1.109375 -76.484375 C -0.742188 -80.953125 0.179688 -85.421875 1.671875 -89.890625 C 3.535156 -95.097656 6.882812 -99.46875 11.71875 -103 C 16.5625 -106.539062 21.773438 -108.125 27.359375 -107.75 C 33.679688 -107.007812 38.332031 -104.6875 41.3125 -100.78125 C 44.289062 -96.875 45.96875 -92.3125 46.34375 -87.09375 L 46.34375 -75.375 C 46.34375 -74.625 46.25 -73.597656 46.0625 -72.296875 C 45.875 -70.992188 45.78125 -69.785156 45.78125 -68.671875 C 45.78125 -67.554688 45.78125 -66.253906 45.78125 -64.765625 C 45.78125 -63.273438 45.59375 -61.972656 45.21875 -60.859375 C 44.851562 -58.617188 44.578125 -56.195312 44.390625 -53.59375 C 44.203125 -50.988281 45.039062 -49.128906 46.90625 -48.015625 C 50.625 -45.785156 54.625 -45.414062 58.90625 -46.90625 C 63.1875 -48.394531 67.1875 -50.253906 70.90625 -52.484375 C 74.257812 -54.710938 77.238281 -57.035156 79.84375 -59.453125 C 82.445312 -61.878906 84.863281 -64.394531 87.09375 -67 C 88.957031 -69.976562 90.632812 -72.769531 92.125 -75.375 C 93.613281 -77.976562 95.289062 -80.769531 97.15625 -83.75 C 97.894531 -86.351562 99.007812 -88.957031 100.5 -91.5625 C 101.238281 -93.425781 101.976562 -95.566406 102.71875 -97.984375 C 103.46875 -100.398438 104.21875 -103.285156 104.96875 -106.640625 C 105.707031 -108.503906 106.265625 -110.457031 106.640625 -112.5 C 107.015625 -114.550781 107.382812 -116.691406 107.75 -118.921875 Z M 124.5 -154.09375 C 125.625 -157.070312 126.742188 -161.164062 127.859375 -166.375 L 132.328125 -180.890625 L 142.9375 -207.140625 C 144.050781 -209.367188 145.164062 -213.09375 146.28125 -218.3125 C 146.65625 -219.425781 147.117188 -221.003906 147.671875 -223.046875 C 148.234375 -225.097656 148.882812 -227.054688 149.625 -228.921875 C 150.375 -231.148438 151.117188 -233.378906 151.859375 -235.609375 L 156.890625 -251.25 C 159.492188 -259.0625 163.679688 -264.175781 169.453125 -266.59375 C 175.222656 -269.019531 181.828125 -268.929688 189.265625 -266.328125 C 197.085938 -263.347656 201.925781 -259.4375 203.78125 -254.59375 C 205.644531 -249.757812 205.648438 -243.617188 203.796875 -236.171875 C 201.929688 -231.335938 201 -227.988281 201 -226.125 C 200.625 -223.882812 200.15625 -221.460938 199.59375 -218.859375 C 199.039062 -216.253906 198.207031 -213.460938 197.09375 -210.484375 C 196.34375 -208.628906 195.503906 -206.863281 194.578125 -205.1875 C 193.648438 -203.507812 192.625 -201.738281 191.5 -199.875 C 191.132812 -198.757812 190.484375 -197.269531 189.546875 -195.40625 C 188.617188 -193.550781 187.78125 -191.878906 187.03125 -190.390625 C 186.289062 -188.898438 185.640625 -187.78125 185.078125 -187.03125 C 184.523438 -186.289062 184.4375 -186.296875 184.8125 -187.046875 L 181.453125 -170.296875 C 188.148438 -170.296875 194.289062 -171.035156 199.875 -172.515625 L 199.875 -171.96875 C 204.71875 -173.820312 209.28125 -175.585938 213.5625 -177.265625 C 217.84375 -178.941406 222.03125 -181.082031 226.125 -183.6875 C 227.988281 -184.4375 230.316406 -186.296875 233.109375 -189.265625 C 235.898438 -192.242188 238.78125 -195.222656 241.75 -198.203125 L 242.875 -199.875 C 245.851562 -202.851562 248.550781 -206.109375 250.96875 -209.640625 C 253.382812 -213.179688 255.710938 -217 257.953125 -221.09375 L 257.953125 -220.546875 L 261.296875 -226.6875 C 262.785156 -229.65625 264.273438 -232.535156 265.765625 -235.328125 C 267.253906 -238.117188 268.367188 -241.003906 269.109375 -243.984375 C 270.234375 -249.566406 270.140625 -254.59375 268.828125 -259.0625 C 267.523438 -263.53125 265.757812 -267.253906 263.53125 -270.234375 C 260.925781 -273.578125 257.851562 -276.644531 254.3125 -279.4375 C 250.78125 -282.226562 246.410156 -284.554688 241.203125 -286.421875 C 237.472656 -287.160156 233.5625 -287.625 229.46875 -287.8125 C 225.375 -288 221.46875 -288.09375 217.75 -288.09375 C 214.394531 -288.09375 210.765625 -287.628906 206.859375 -286.703125 C 202.953125 -285.773438 198.953125 -284.75 194.859375 -283.625 C 192.617188 -282.882812 190.382812 -282.046875 188.15625 -281.109375 C 185.925781 -280.179688 183.691406 -279.160156 181.453125 -278.046875 L 174.203125 -274.703125 C 172.710938 -273.953125 171.222656 -273.390625 169.734375 -273.015625 C 168.617188 -272.273438 167.410156 -271.8125 166.109375 -271.625 C 164.804688 -271.4375 163.78125 -271.160156 163.03125 -270.796875 C 158.5625 -269.671875 154.835938 -268.179688 151.859375 -266.328125 C 148.140625 -264.085938 144.882812 -261.664062 142.09375 -259.0625 C 139.300781 -256.457031 136.601562 -253.664062 134 -250.6875 C 131.769531 -248.820312 130 -246.863281 128.6875 -244.8125 C 127.382812 -242.769531 125.988281 -240.632812 124.5 -238.40625 L 121.15625 -232.265625 L 117.25 -227.234375 C 113.894531 -223.140625 110.726562 -218.488281 107.75 -213.28125 C 105.894531 -210.300781 104.40625 -207.039062 103.28125 -203.5 C 102.164062 -199.96875 101.238281 -196.34375 100.5 -192.625 C 99.75 -187.78125 99.375 -183.03125 99.375 -178.375 C 99.375 -173.726562 101.796875 -169.914062 106.640625 -166.9375 C 110.734375 -164.332031 113.800781 -161.351562 115.84375 -158 C 117.894531 -154.65625 119.476562 -151.304688 120.59375 -147.953125 Z M 124.5 -154.09375 "/></g></g></g></svg>